<?xml version="1.0" encoding="utf-8"?>
<!-- Generator: Adobe Illustrator 16.2.1, SVG Export Plug-In . SVG Version: 6.00 Build 0)  -->
<!DOCTYPE svg PUBLIC "-//W3C//DTD SVG 1.1 Tiny//EN" "http://www.w3.org/Graphics/SVG/1.1/DTD/svg11-tiny.dtd">
<svg version="1.1" baseProfile="tiny" id="Layer_1" xmlns="http://www.w3.org/2000/svg" xmlns:xlink="http://www.w3.org/1999/xlink"
	 x="0px" y="0px" width="473.124px" height="85.602px" viewBox="0 0 473.124 85.602" xml:space="preserve">
<path fill="#B3B4B6" d="M160.951,32.065h-9.739v9.309h9.897c2.684,0,5.317-1.04,5.317-4.576
	C166.426,33.781,164.478,32.065,160.951,32.065L160.951,32.065z M151.212,17.816v7.957h9.897c2.369,0,4.264-1.612,4.264-4.003
	c0-2.393-1.632-3.953-4.264-3.953H151.212L151.212,17.816z M162.056,47.666h-17.793v-36.09h16.846
	c7.317,0,11.002,3.744,11.002,9.777c0,3.016-1.316,5.46-3.579,7.072c3.105,1.611,5.001,4.523,5.001,8.632
	C173.533,43.505,169.111,47.666,162.056,47.666L162.056,47.666z"/>
<polygon fill="#B3B4B6" points="186.96,47.666 180.012,47.666 180.012,11.576 186.96,11.576 186.96,47.666 "/>
<polygon fill="#B3B4B6" points="202.387,35.341 202.387,47.666 195.385,47.666 195.385,11.576 202.387,11.576 202.387,26.136 
	216.126,11.576 225.708,11.576 210.862,26.657 226.339,47.666 217.285,47.666 205.966,31.649 202.387,35.341 "/>
<polygon fill="#B3B4B6" points="257.352,47.666 230.292,47.666 230.292,11.576 256.982,11.576 256.982,17.972 237.242,17.972 
	237.242,25.668 254.087,25.668 254.087,32.065 237.242,32.065 237.242,41.269 257.352,41.269 257.352,47.666 "/>
<path fill="#B3B4B6" d="M290.1,22.497h-6.949c0-3.12-2.633-5.46-7.055-5.46c-3.685,0-7.105,1.404-7.105,4.16
	c0,2.496,2.473,3.38,8.053,4.523c8.688,1.717,14.162,3.849,14.162,11.232c0,6.969-5.896,11.336-15.109,11.336
	c-7.158,0-14.949-3.9-14.949-12.584h6.947c0,4.265,4.317,6.293,8.002,6.293c4.002,0,8.159-1.404,8.159-4.836
	c0-2.289-1.894-3.692-8.632-4.992c-6.739-1.301-13.582-3.276-13.582-11.025c0-6.188,5.527-10.504,14.055-10.504
	C285.73,10.64,290.1,16.777,290.1,22.497L290.1,22.497z"/>
<polygon fill="#B3B4B6" points="155.054,58.156 155.054,73.502 152.743,73.502 152.743,61.514 152.7,61.514 150.302,73.502 
	149.018,73.502 146.62,61.514 146.577,61.514 146.577,73.502 144.265,73.502 144.265,58.156 147.754,58.156 149.638,67.125 
	149.681,67.125 151.565,58.156 155.054,58.156 "/>
<path fill="#B3B4B6" d="M160.492,67.807h2.14l-1.049-6.59h-0.042L160.492,67.807L160.492,67.807z M159.635,73.502h-2.569
	l2.848-15.346h3.296l2.847,15.346h-2.568l-0.472-3.4h-2.911L159.635,73.502L159.635,73.502z"/>
<polygon fill="#B3B4B6" points="168.111,73.502 168.111,58.156 170.765,58.156 170.765,63.832 170.808,63.832 173.591,58.156 
	176.246,58.156 173.377,63.873 176.61,73.502 173.913,73.502 171.75,66.361 171.708,66.361 170.765,68.061 170.765,73.502 
	168.111,73.502 "/>
<polygon fill="#B3B4B6" points="178.599,73.502 178.599,58.156 185.707,58.156 185.707,60.451 181.254,60.451 181.254,64.404 
	184.679,64.404 184.679,66.701 181.254,66.701 181.254,71.207 186.006,71.207 186.006,73.502 178.599,73.502 "/>
<polygon fill="#B3B4B6" points="193.348,73.502 193.348,58.156 196.002,58.156 196.002,71.207 200.177,71.207 200.177,73.502 
	193.348,73.502 "/>
<polygon fill="#B3B4B6" points="203.024,73.502 203.024,58.156 205.678,58.156 205.678,73.502 203.024,73.502 "/>
<polygon fill="#B3B4B6" points="209.125,73.502 209.125,58.156 216.532,58.156 216.532,60.451 211.78,60.451 211.78,64.404 
	215.333,64.404 215.333,66.701 211.78,66.701 211.78,73.502 209.125,73.502 "/>
<polygon fill="#B3B4B6" points="218.628,73.502 218.628,58.156 225.736,58.156 225.736,60.451 221.284,60.451 221.284,64.404 
	224.708,64.404 224.708,66.701 221.284,66.701 221.284,71.207 226.036,71.207 226.036,73.502 218.628,73.502 "/>
<path fill="#B3B4B6" d="M236.053,71.334h1.114c1.412,0,1.926-0.807,1.926-2.359c0-1.572-0.599-2.359-2.184-2.359h-0.856V71.334
	L236.053,71.334z M236.053,64.447h0.963c1.006,0,1.777-0.68,1.777-1.955c0-1.424-0.557-2.168-1.734-2.168h-1.006V64.447
	L236.053,64.447z M233.398,58.156h3.939c2.849,0,4.111,1.445,4.111,4.059c0,1.318-0.558,2.701-1.841,3.211
	c1.349,0.594,2.141,1.658,2.141,3.635c0,2.529-1.135,4.441-4.154,4.441h-4.196V58.156L233.398,58.156z"/>
<polygon fill="#B3B4B6" points="244.615,73.502 244.615,58.156 251.723,58.156 251.723,60.451 247.27,60.451 247.27,64.404 
	250.695,64.404 250.695,66.701 247.27,66.701 247.27,71.207 252.021,71.207 252.021,73.502 244.615,73.502 "/>
<polygon fill="#B3B4B6" points="256.174,60.451 253.605,60.451 253.605,58.156 261.398,58.156 261.398,60.451 258.829,60.451 
	258.829,73.502 256.174,73.502 256.174,60.451 "/>
<polygon fill="#B3B4B6" points="265.743,60.451 263.173,60.451 263.173,58.156 270.966,58.156 270.966,60.451 268.396,60.451 
	268.396,73.502 265.743,73.502 265.743,60.451 "/>
<polygon fill="#B3B4B6" points="273.042,73.502 273.042,58.156 280.148,58.156 280.148,60.451 275.697,60.451 275.697,64.404 
	279.122,64.404 279.122,66.701 275.697,66.701 275.697,71.207 280.449,71.207 280.449,73.502 273.042,73.502 "/>
<path fill="#B3B4B6" d="M285.416,65.043h0.941c1.435,0,1.97-0.531,1.97-2.359s-0.535-2.359-1.97-2.359h-0.941V65.043L285.416,65.043
	z M285.416,73.502h-2.656V58.156h3.727c2.975,0,4.494,1.254,4.494,4.527c0,2.465-0.963,3.465-1.861,3.869l2.248,6.949h-2.698
	l-1.883-6.355c-0.343,0.043-0.9,0.064-1.37,0.064V73.502L285.416,73.502z"/>
<path fill="#B3B4B6" d="M301.114,15.657h0.934c0.96,0,1.272-0.276,1.272-0.84c0-0.491-0.239-0.768-1.139-0.768h-1.067V15.657
	L301.114,15.657z M301.114,18.536h-0.792v-5.134h1.967c1.223,0,1.822,0.456,1.822,1.464c0,0.923-0.575,1.319-1.344,1.415
	l1.465,2.255h-0.864L302,16.304h-0.886V18.536L301.114,18.536z M302.061,12.239c-2.062,0-3.658,1.595-3.658,3.718
	c0,2.171,1.596,3.742,3.658,3.742c2.039,0,3.635-1.571,3.635-3.742C305.695,13.833,304.1,12.239,302.061,12.239L302.061,12.239z
	 M302.061,11.519c2.424,0,4.498,1.883,4.498,4.438c0,2.579-2.074,4.462-4.498,4.462c-2.446,0-4.521-1.883-4.521-4.462
	C297.54,13.402,299.614,11.519,302.061,11.519L302.061,11.519z"/>
<polygon fill="#B3B4B6" points="352.059,12.354 347.911,12.354 347.911,11.539 357.089,11.539 357.089,12.354 352.941,12.354 
	352.941,23.438 352.059,23.438 352.059,12.354 "/>
<path fill="#B3B4B6" d="M358.312,14.769h0.834v2.465c0.68-1.547,2.125-2.669,3.842-2.601v0.918h-0.086
	c-2.006,0-3.756,1.513-3.756,4.334v3.553h-0.834V14.769L358.312,14.769z"/>
<path fill="#B3B4B6" d="M371.077,20.19v-0.985c-0.731-0.188-1.701-0.391-2.94-0.391c-1.837,0-2.855,0.815-2.855,2.022v0.034
	c0,1.258,1.189,1.988,2.515,1.988C369.564,22.859,371.077,21.771,371.077,20.19L371.077,20.19z M364.396,20.922v-0.034
	c0-1.802,1.547-2.821,3.791-2.821c1.207,0,2.039,0.152,2.873,0.374v-0.374c0-1.751-1.071-2.652-2.856-2.652
	c-1.054,0-1.921,0.289-2.72,0.697l-0.307-0.731c0.952-0.441,1.887-0.747,3.077-0.747c1.173,0,2.108,0.322,2.737,0.951
	c0.578,0.578,0.883,1.377,0.883,2.448v5.405h-0.814v-1.445c-0.597,0.833-1.666,1.649-3.315,1.649
	C366.13,23.642,364.396,22.724,364.396,20.922L364.396,20.922z"/>
<path fill="#B3B4B6" d="M375.292,14.769h0.833v1.614c0.579-1.02,1.547-1.818,3.128-1.818c2.194,0,3.468,1.496,3.468,3.569v5.304
	h-0.832v-5.15c0-1.785-1.004-2.958-2.755-2.958c-1.698,0-3.009,1.292-3.009,3.094v5.015h-0.833V14.769L375.292,14.769z"/>
<path fill="#B3B4B6" d="M385.391,22.35l0.493-0.663c0.951,0.731,2.007,1.139,3.111,1.139c1.172,0,2.09-0.646,2.09-1.648v-0.034
	c0-1.02-1.087-1.394-2.294-1.733c-1.411-0.408-2.975-0.833-2.975-2.38v-0.034c0-1.394,1.173-2.396,2.854-2.396
	c1.037,0,2.21,0.374,3.078,0.952l-0.442,0.696c-0.8-0.526-1.75-0.867-2.668-0.867c-1.19,0-1.973,0.646-1.973,1.514v0.033
	c0,0.97,1.173,1.326,2.414,1.684c1.395,0.391,2.855,0.9,2.855,2.431v0.034c0,1.546-1.326,2.532-2.992,2.532
	C387.686,23.607,386.309,23.098,385.391,22.35L385.391,22.35z"/>
<path fill="#B3B4B6" d="M402.73,19.137v-0.034c0-2.277-1.58-3.739-3.399-3.739c-1.802,0-3.537,1.513-3.537,3.723v0.034
	c0,2.227,1.735,3.723,3.537,3.723C401.217,22.843,402.73,21.466,402.73,19.137L402.73,19.137z M395.014,14.769h0.832v1.938
	c0.747-1.139,1.854-2.142,3.57-2.142c2.09,0,4.215,1.683,4.215,4.505v0.033c0,2.822-2.125,4.539-4.215,4.539
	c-1.734,0-2.855-0.986-3.57-2.074v4.59h-0.832V14.769L395.014,14.769z"/>
<path fill="#B3B4B6" d="M414.068,19.137v-0.034c0-2.091-1.563-3.756-3.568-3.756c-2.057,0-3.537,1.683-3.537,3.723v0.033
	c0,2.091,1.564,3.757,3.57,3.757C412.589,22.859,414.068,21.177,414.068,19.137L414.068,19.137z M406.062,19.137v-0.034
	c0-2.431,1.887-4.538,4.471-4.538c2.566,0,4.438,2.074,4.438,4.505v0.033c0,2.431-1.888,4.539-4.471,4.539
	C407.932,23.642,406.062,21.567,406.062,19.137L406.062,19.137z"/>
<path fill="#B3B4B6" d="M417.962,14.769h0.833v2.465c0.682-1.547,2.125-2.669,3.842-2.601v0.918h-0.084
	c-2.007,0-3.758,1.513-3.758,4.334v3.553h-0.833V14.769L417.962,14.769z"/>
<path fill="#B3B4B6" d="M425.646,21.211v-5.678h-1.258v-0.765h1.258v-2.771h0.832v2.771h3.043v0.765h-3.043v5.593
	c0,1.24,0.731,1.683,1.733,1.683c0.427,0,0.784-0.085,1.276-0.306v0.781c-0.442,0.204-0.867,0.307-1.41,0.307
	C426.734,23.591,425.646,22.859,425.646,21.211L425.646,21.211z"/>
<path fill="#B3B4B6" d="M438.378,20.19v-0.985c-0.729-0.188-1.699-0.391-2.94-0.391c-1.836,0-2.854,0.815-2.854,2.022v0.034
	c0,1.258,1.19,1.988,2.515,1.988C436.866,22.859,438.378,21.771,438.378,20.19L438.378,20.19z M431.699,20.922v-0.034
	c0-1.802,1.547-2.821,3.791-2.821c1.206,0,2.039,0.152,2.872,0.374v-0.374c0-1.751-1.071-2.652-2.857-2.652
	c-1.052,0-1.92,0.289-2.718,0.697l-0.307-0.731c0.951-0.441,1.887-0.747,3.076-0.747c1.174,0,2.109,0.322,2.737,0.951
	c0.578,0.578,0.883,1.377,0.883,2.448v5.405h-0.814v-1.445c-0.596,0.833-1.666,1.649-3.315,1.649
	C433.432,23.642,431.699,22.724,431.699,20.922L431.699,20.922z"/>
<path fill="#B3B4B6" d="M442.966,21.211v-5.678h-1.258v-0.765h1.258v-2.771h0.833v2.771h3.043v0.765h-3.043v5.593
	c0,1.24,0.732,1.683,1.734,1.683c0.425,0,0.783-0.085,1.274-0.306v0.781c-0.44,0.204-0.866,0.307-1.409,0.307
	C444.054,23.591,442.966,22.859,442.966,21.211L442.966,21.211z"/>
<path fill="#B3B4B6" d="M449.851,14.769h0.833v8.669h-0.833V14.769L449.851,14.769z M449.75,11.369h1.037v1.139h-1.037V11.369
	L449.75,11.369z"/>
<path fill="#B3B4B6" d="M461.802,19.137v-0.034c0-2.091-1.563-3.756-3.569-3.756c-2.058,0-3.535,1.683-3.535,3.723v0.033
	c0,2.091,1.562,3.757,3.568,3.757C460.323,22.859,461.802,21.177,461.802,19.137L461.802,19.137z M453.795,19.137v-0.034
	c0-2.431,1.887-4.538,4.471-4.538c2.567,0,4.438,2.074,4.438,4.505v0.033c0,2.431-1.887,4.539-4.471,4.539
	C455.666,23.642,453.795,21.567,453.795,19.137L453.795,19.137z"/>
<path fill="#B3B4B6" d="M465.695,14.769h0.833v1.614c0.578-1.02,1.547-1.818,3.128-1.818c2.192,0,3.468,1.496,3.468,3.569v5.304
	h-0.833v-5.15c0-1.785-1.003-2.958-2.754-2.958c-1.7,0-3.009,1.292-3.009,3.094v5.015h-0.833V14.769L465.695,14.769z"/>
<path fill="#B3B4B6" d="M347.996,45.705l0.578-0.664c1.308,1.207,2.515,1.768,4.266,1.768c1.785,0,3.01-1.002,3.01-2.364v-0.033
	c0-1.258-0.664-1.988-3.367-2.533c-2.855-0.578-4.01-1.547-4.01-3.349v-0.034c0-1.768,1.613-3.127,3.823-3.127
	c1.733,0,2.873,0.476,4.079,1.444l-0.561,0.697c-1.121-0.969-2.243-1.343-3.553-1.343c-1.75,0-2.906,1.003-2.906,2.243v0.034
	c0,1.258,0.646,2.022,3.469,2.601c2.753,0.562,3.908,1.547,3.908,3.282v0.033c0,1.92-1.649,3.247-3.943,3.247
	C350.885,47.607,349.423,46.979,347.996,45.705L347.996,45.705z"/>
<path fill="#B3B4B6" d="M359.708,44.072v-5.303h0.833v5.151c0,1.786,1.003,2.958,2.753,2.958c1.701,0,3.011-1.291,3.011-3.094
	v-5.014h0.832v8.669h-0.832v-1.615c-0.578,1.021-1.548,1.82-3.13,1.82C360.982,47.643,359.708,46.146,359.708,44.072L359.708,44.072
	z"/>
<path fill="#B3B4B6" d="M369.977,46.35l0.492-0.662c0.952,0.73,2.006,1.139,3.111,1.139c1.173,0,2.091-0.646,2.091-1.648v-0.035
	c0-1.02-1.088-1.393-2.295-1.733c-1.411-0.408-2.974-0.834-2.974-2.38v-0.034c0-1.394,1.172-2.396,2.854-2.396
	c1.037,0,2.209,0.374,3.076,0.952l-0.44,0.696c-0.8-0.526-1.752-0.867-2.67-0.867c-1.189,0-1.972,0.646-1.972,1.514v0.033
	c0,0.97,1.173,1.327,2.415,1.684c1.393,0.391,2.855,0.9,2.855,2.43v0.035c0,1.545-1.326,2.531-2.992,2.531
	C372.271,47.607,370.895,47.098,369.977,46.35L369.977,46.35z"/>
<path fill="#B3B4B6" d="M379.887,45.211v-5.678h-1.259v-0.765h1.259v-2.771h0.832v2.771h3.043v0.765h-3.043v5.594
	c0,1.24,0.732,1.682,1.734,1.682c0.425,0,0.783-0.084,1.275-0.305v0.781c-0.441,0.203-0.867,0.307-1.41,0.307
	C380.975,47.592,379.887,46.859,379.887,45.211L379.887,45.211z"/>
<path fill="#B3B4B6" d="M392.619,44.191v-0.986c-0.73-0.188-1.7-0.391-2.941-0.391c-1.836,0-2.854,0.816-2.854,2.023v0.033
	c0,1.258,1.19,1.989,2.515,1.989C391.105,46.859,392.619,45.771,392.619,44.191L392.619,44.191z M385.939,44.921v-0.033
	c0-1.803,1.547-2.822,3.791-2.822c1.205,0,2.039,0.152,2.871,0.375v-0.375c0-1.751-1.07-2.652-2.855-2.652
	c-1.053,0-1.92,0.289-2.719,0.697l-0.307-0.731c0.951-0.441,1.887-0.747,3.076-0.747c1.174,0,2.109,0.322,2.738,0.951
	c0.576,0.578,0.882,1.377,0.882,2.448v5.405h-0.815v-1.445c-0.595,0.834-1.666,1.65-3.313,1.65
	C387.672,47.643,385.939,46.725,385.939,44.921L385.939,44.921z"/>
<path fill="#B3B4B6" d="M396.955,38.769h0.832v8.669h-0.832V38.769L396.955,38.769z M396.852,35.369h1.037v1.139h-1.037V35.369
	L396.852,35.369z"/>
<path fill="#B3B4B6" d="M401.494,38.769h0.832v1.614c0.578-1.02,1.547-1.818,3.129-1.818c2.191,0,3.466,1.496,3.466,3.569v5.304
	h-0.832v-5.151c0-1.785-1.004-2.958-2.754-2.958c-1.7,0-3.009,1.292-3.009,3.094v5.014h-0.832V38.769L401.494,38.769z"/>
<path fill="#B3B4B6" d="M418.307,44.191v-0.986c-0.73-0.188-1.701-0.391-2.941-0.391c-1.836,0-2.856,0.816-2.856,2.023v0.033
	c0,1.258,1.191,1.989,2.517,1.989C416.792,46.859,418.307,45.771,418.307,44.191L418.307,44.191z M411.625,44.921v-0.033
	c0-1.803,1.547-2.822,3.792-2.822c1.206,0,2.04,0.152,2.872,0.375v-0.375c0-1.751-1.071-2.652-2.855-2.652
	c-1.055,0-1.92,0.289-2.721,0.697l-0.305-0.731c0.951-0.441,1.886-0.747,3.076-0.747c1.174,0,2.107,0.322,2.736,0.951
	c0.577,0.578,0.885,1.377,0.885,2.448v5.405h-0.816v-1.445c-0.596,0.834-1.666,1.65-3.314,1.65
	C413.359,47.643,411.625,46.725,411.625,44.921L411.625,44.921z"/>
<path fill="#B3B4B6" d="M430.24,43.136v-0.033c0-2.278-1.581-3.74-3.401-3.74c-1.8,0-3.534,1.513-3.534,3.722v0.035
	c0,2.227,1.734,3.723,3.534,3.723C428.727,46.844,430.24,45.467,430.24,43.136L430.24,43.136z M423.355,45.568v1.869h-0.832V35.028
	h0.832v5.678c0.748-1.139,1.853-2.142,3.569-2.142c2.091,0,4.215,1.683,4.215,4.505v0.033c0,2.823-2.124,4.54-4.215,4.54
	C425.191,47.643,424.068,46.656,423.355,45.568L423.355,45.568z"/>
<path fill="#B3B4B6" d="M434.287,38.769h0.832v8.669h-0.832V38.769L434.287,38.769z M434.184,35.369h1.037v1.139h-1.037V35.369
	L434.184,35.369z"/>
<polygon fill="#B3B4B6" points="438.943,35.028 439.777,35.028 439.777,47.438 438.943,47.438 438.943,35.028 "/>
<path fill="#B3B4B6" d="M443.601,38.769h0.834v8.669h-0.834V38.769L443.601,38.769z M443.5,35.369h1.037v1.139H443.5V35.369
	L443.5,35.369z"/>
<path fill="#B3B4B6" d="M448.599,45.211v-5.678h-1.258v-0.765h1.258v-2.771h0.833v2.771h3.043v0.765h-3.043v5.594
	c0,1.24,0.732,1.682,1.734,1.682c0.425,0,0.783-0.084,1.275-0.305v0.781c-0.441,0.203-0.867,0.307-1.41,0.307
	C449.688,47.592,448.599,46.859,448.599,45.211L448.599,45.211z"/>
<path fill="#B3B4B6" d="M454.703,49.834l0.289-0.73c0.459,0.221,0.832,0.324,1.478,0.324c0.901,0,1.496-0.527,2.143-2.041
	l-4.165-8.618h0.969l3.603,7.751l3.13-7.751h0.918l-3.759,8.976c-0.765,1.818-1.647,2.465-2.889,2.465
	C455.755,50.209,455.28,50.09,454.703,49.834L454.703,49.834z"/>
<polygon fill="#B3B4B6" points="347.843,61.539 348.829,61.539 352.568,72.129 356.052,61.506 356.732,61.506 360.217,72.129 
	363.957,61.539 364.875,61.539 360.557,73.523 359.843,73.523 356.359,63.188 352.875,73.523 352.16,73.523 347.843,61.539 "/>
<path fill="#B3B4B6" d="M373.221,68.695c-0.119-1.75-1.123-3.365-3.111-3.365c-1.717,0-3.043,1.445-3.195,3.365H373.221
	L373.221,68.695z M366.029,69.121v-0.035c0-2.516,1.768-4.521,4.113-4.521c2.432,0,3.979,1.973,3.979,4.539
	c0,0.152,0,0.203-0.018,0.34h-7.189c0.152,2.158,1.699,3.416,3.398,3.416c1.344,0,2.262-0.594,2.976-1.359l0.578,0.51
	c-0.884,0.953-1.921,1.633-3.587,1.633C368.001,73.643,366.029,71.822,366.029,69.121L366.029,69.121z"/>
<polygon fill="#B3B4B6" points="377.096,61.029 377.93,61.029 377.93,73.438 377.096,73.438 377.096,61.029 "/>
<polygon fill="#B3B4B6" points="381.754,61.029 382.587,61.029 382.587,73.438 381.754,73.438 381.754,61.029 "/>
<path fill="#B3B4B6" d="M386.293,64.77h0.833v1.613c0.579-1.02,1.547-1.818,3.127-1.818c2.194,0,3.47,1.496,3.47,3.57v5.303h-0.834
	v-5.15c0-1.785-1.003-2.957-2.755-2.957c-1.698,0-3.008,1.291-3.008,3.094v5.014h-0.833V64.77L386.293,64.77z"/>
<path fill="#B3B4B6" d="M403.734,68.695c-0.119-1.75-1.121-3.365-3.11-3.365c-1.717,0-3.042,1.445-3.196,3.365H403.734
	L403.734,68.695z M396.544,69.121v-0.035c0-2.516,1.769-4.521,4.114-4.521c2.43,0,3.977,1.973,3.977,4.539
	c0,0.152,0,0.203-0.016,0.34h-7.191c0.154,2.158,1.7,3.416,3.4,3.416c1.342,0,2.26-0.594,2.975-1.359l0.577,0.51
	c-0.884,0.953-1.921,1.633-3.587,1.633C398.516,73.643,396.544,71.822,396.544,69.121L396.544,69.121z"/>
<path fill="#B3B4B6" d="M406.745,72.35l0.493-0.662c0.951,0.73,2.006,1.139,3.109,1.139c1.174,0,2.092-0.646,2.092-1.648v-0.035
	c0-1.02-1.088-1.393-2.295-1.732c-1.41-0.408-2.976-0.834-2.976-2.381v-0.033c0-1.395,1.173-2.396,2.856-2.396
	c1.037,0,2.209,0.373,3.076,0.951l-0.441,0.697c-0.799-0.527-1.75-0.867-2.668-0.867c-1.191,0-1.973,0.646-1.973,1.514v0.033
	c0,0.969,1.174,1.326,2.414,1.684c1.395,0.391,2.855,0.9,2.855,2.43v0.035c0,1.545-1.327,2.531-2.992,2.531
	C409.04,73.607,407.663,73.098,406.745,72.35L406.745,72.35z"/>
<path fill="#B3B4B6" d="M415.449,72.35l0.492-0.662c0.951,0.73,2.006,1.139,3.111,1.139c1.172,0,2.09-0.646,2.09-1.648v-0.035
	c0-1.02-1.088-1.393-2.295-1.732c-1.41-0.408-2.975-0.834-2.975-2.381v-0.033c0-1.395,1.173-2.396,2.855-2.396
	c1.037,0,2.211,0.373,3.078,0.951l-0.442,0.697c-0.8-0.527-1.751-0.867-2.669-0.867c-1.19,0-1.973,0.646-1.973,1.514v0.033
	c0,0.969,1.174,1.326,2.414,1.684c1.395,0.391,2.856,0.9,2.856,2.43v0.035c0,1.545-1.326,2.531-2.992,2.531
	C417.743,73.607,416.367,73.098,415.449,72.35L415.449,72.35z"/>
<g>
	<path fill="none" d="M14.434,57.25c-3.842,3.842-3.844,10.074-0.001,13.916c3.844,3.846,10.076,3.844,13.919,0
		c3.842-3.842,3.842-10.072,0-13.916C24.508,53.406,18.277,53.406,14.434,57.25z"/>
	<path fill="none" d="M113.979,71.168c3.843-3.846,3.842-10.078,0-13.922c-3.846-3.846-10.076-3.846-13.922,0.002
		c-3.841,3.842-3.842,10.074,0,13.92C103.901,75.01,110.135,75.012,113.979,71.168z"/>
	<polygon fill="#B3B4B6" points="320.18,73.381 320.186,73.381 321.191,73.381 331.164,11.643 330.152,11.643 	"/>
	<path fill="#03ACD4" d="M91.891,79.336c8.355,8.354,21.901,8.354,30.256,0c8.352-8.355,8.352-21.9-0.002-30.256
		c-4.204-4.206-9.725-6.293-15.235-6.264c-5.443-0.029-10.88-2.118-15.041-6.276c-4.154-4.154-6.243-9.588-6.274-15.023
		c-0.066,11.701-9.527,21.176-21.223,21.266c5.421,0.043,10.836,2.131,14.979,6.276c4.16,4.158,6.25,9.602,6.275,15.045
		C85.601,69.615,87.689,75.131,91.891,79.336z M100.057,57.248c3.846-3.848,10.076-3.848,13.922-0.002
		c3.842,3.844,3.843,10.076,0,13.922c-3.844,3.844-10.078,3.842-13.922,0C96.215,67.322,96.216,61.09,100.057,57.248z"/>
	<path fill="#FDD402" d="M42.783,64.1c0.027-5.441,2.117-10.881,6.274-15.039c4.146-4.145,9.562-6.235,14.984-6.276
		c-11.701-0.088-21.164-9.569-21.226-21.274c0,0,0,0.002,0,0.004c-0.031,5.439-2.119,10.871-6.276,15.027
		c-4.16,4.162-9.602,6.249-15.046,6.276c-5.509-0.027-11.026,2.059-15.229,6.264C2.089,53.259,0.001,58.732,0,64.206v0.006
		c0,5.474,2.088,10.947,6.264,15.124c8.355,8.354,21.9,8.354,30.255,0C40.724,75.131,42.81,69.611,42.783,64.1z M28.352,71.166
		c-3.843,3.844-10.075,3.846-13.919,0c-3.843-3.842-3.841-10.074,0.001-13.916c3.843-3.844,10.074-3.844,13.918,0
		C32.194,61.094,32.194,67.324,28.352,71.166z"/>
</g>
<path fill-rule="evenodd" fill="#08A64E" d="M64.205,31.237c-5.434,0-9.842-4.406-9.842-9.842c0-5.437,4.408-9.845,9.842-9.845
	c5.438,0,9.844,4.408,9.844,9.845C74.048,26.831,69.642,31.237,64.205,31.237L64.205,31.237z M64.205,0
	C52.39,0,42.814,9.58,42.814,21.396c0,11.812,9.576,21.393,21.391,21.393s21.393-9.581,21.393-21.393C85.597,9.58,76.019,0,64.205,0
	L64.205,0z"/>
<g>
</g>
<g>
</g>
<g>
</g>
<g>
</g>
<g>
</g>
<g>
</g>
</svg>
